<svg xmlns="http://www.w3.org/2000/svg" width="21.031" height="23.808" viewBox="0 0 21.031 23.808"><defs><style>.a{fill:#d4d4d4;}</style></defs><path class="a" d="M19.84,5.952H16.666V1.19A1.169,1.169,0,0,0,15.475,0H1.19A1.169,1.169,0,0,0,0,1.19V22.618a1.169,1.169,0,0,0,1.19,1.19H13.253L16.666,20.4V17.856h-.794V19.84H13.888a1.169,1.169,0,0,0-1.19,1.19v1.984H1.19a.375.375,0,0,1-.4-.4V1.19a.375.375,0,0,1,.4-.4H15.475a.375.375,0,0,1,.4.4V5.952H12.7a1.169,1.169,0,0,0-1.19,1.19v7.142a1.169,1.169,0,0,0,1.19,1.19H14.92l1.349,1.349,1.349-1.349H19.84a1.169,1.169,0,0,0,1.19-1.19V7.142a1.169,1.169,0,0,0-1.19-1.19ZM13.888,20.634h1.429l-1.825,1.825V21.031A.375.375,0,0,1,13.888,20.634Zm6.349-6.349a.375.375,0,0,1-.4.4H17.3l-1.032,1.032-1.032-1.032H12.7a.375.375,0,0,1-.4-.4V7.142a.375.375,0,0,1,.4-.4H19.84a.375.375,0,0,1,.4.4Zm0,0"/><path class="a" d="M120,40h4.762v.794H120Zm0,0" transform="translate(-114.048 -38.016)"/><path class="a" d="M40,80h1.19v.794H40Zm0,0" transform="translate(-38.016 -76.032)"/><path class="a" d="M80,80H90.714v.794H80Zm0,0" transform="translate(-76.032 -76.032)"/><path class="a" d="M40,128h1.19v.794H40Zm0,0" transform="translate(-38.016 -121.651)"/><path class="a" d="M80,128h6.349v.794H80Zm0,0" transform="translate(-76.032 -121.651)"/><path class="a" d="M40,176h1.19v.794H40Zm0,0" transform="translate(-38.016 -167.27)"/><path class="a" d="M80,176h6.349v.794H80Zm0,0" transform="translate(-76.032 -167.27)"/><path class="a" d="M40,224h1.19v.794H40Zm0,0" transform="translate(-38.016 -212.89)"/><path class="a" d="M80,224h6.349v.794H80Zm0,0" transform="translate(-76.032 -212.89)"/><path class="a" d="M40,272h1.19v.794H40Zm0,0" transform="translate(-38.016 -258.509)"/><path class="a" d="M80,272h6.349v.794H80Zm0,0" transform="translate(-76.032 -258.509)"/><path class="a" d="M40,320h1.19v.794H40Zm0,0" transform="translate(-38.016 -304.128)"/><path class="a" d="M80,320h6.349v.794H80Zm0,0" transform="translate(-76.032 -304.128)"/><path class="a" d="M40,368h1.19v.794H40Zm0,0" transform="translate(-38.016 -349.747)"/><path class="a" d="M80,368H90.714v.794H80Zm0,0" transform="translate(-76.032 -349.747)"/><path class="a" d="M40,416h1.19v.794H40Zm0,0" transform="translate(-38.016 -395.366)"/><path class="a" d="M80,416h7.539v.794H80Zm0,0" transform="translate(-76.032 -395.366)"/><path class="a" d="M283.968,154.461v-.873a1.587,1.587,0,0,0-3.174,0h.794a.794.794,0,1,1,1.587,0v.794H281.19a1.169,1.169,0,0,0-1.19,1.19v1.587a1.169,1.169,0,0,0,1.19,1.19h2.381a1.169,1.169,0,0,0,1.19-1.19v-1.587A1.156,1.156,0,0,0,283.968,154.461Zm0,2.7a.375.375,0,0,1-.4.4H281.19a.375.375,0,0,1-.4-.4v-1.587a.375.375,0,0,1,.4-.4h2.381a.375.375,0,0,1,.4.4Zm0,0" transform="translate(-266.112 -144.461)"/></svg>